PathFileType	4	(X/Y/Z)	C:\Users\Basilio\Documents\Thesis Gigler\squatting_fais\c3dfiles\040\SLS_pre_back4\markers_experimental.trc
DataRate	CameraRate	NumFrames	NumMarkers	Units	OrigDataRate	OrigDataStartFrame	OrigNumFrames
200.000000	200.000000	4	63	mm	200.000000	0	1249
Frame#	Time	FHD			LBHD			RBHD			C7			T10			CLAV			LSHO			LUUPA			LMUPA			LDUPA			LLEP			LMEP			LRAD			LUL			LRFIN			RSHO			RUPA1			RMUPA			RDUPA			RLEP			RMEP			RRAD			RUL			RUFIN			LASI			RASI			USACR			LSACR			RSACR			LTHI1			LTHI2			LTHI3			LTHI4			LLFC			LMFC			LTIB1			LTIB2			LTIB3			LTIB4			LLMAL			LMMAL			LHEE			LMT1			LMT2			LMT5			RTHI			RTHI2			RTHI3			RTHI4			RLFC			RMFC			RTIB1			RTIB2			RTIB3			RTIB4			RLMAL			RMMAL			RHEE			RMT1			RMT2			RMT5			*61			*62			
		X1	Y1	Z1	X2	Y2	Z2	X3	Y3	Z3	X4	Y4	Z4	X5	Y5	Z5	X6	Y6	Z6	X7	Y7	Z7	X8	Y8	Z8	X9	Y9	Z9	X10	Y10	Z10	X11	Y11	Z11	X12	Y12	Z12	X13	Y13	Z13	X14	Y14	Z14	X15	Y15	Z15	X16	Y16	Z16	X17	Y17	Z17	X18	Y18	Z18	X19	Y19	Z19	X20	Y20	Z20	X21	Y21	Z21	X22	Y22	Z22	X23	Y23	Z23	X24	Y24	Z24	X25	Y25	Z25	X26	Y26	Z26	X27	Y27	Z27	X28	Y28	Z28	X29	Y29	Z29	X30	Y30	Z30	X31	Y31	Z31	X32	Y32	Z32	X33	Y33	Z33	X34	Y34	Z34	X35	Y35	Z35	X36	Y36	Z36	X37	Y37	Z37	X38	Y38	Z38	X39	Y39	Z39	X40	Y40	Z40	X41	Y41	Z41	X42	Y42	Z42	X43	Y43	Z43	X44	Y44	Z44	X45	Y45	Z45	X46	Y46	Z46	X47	Y47	Z47	X48	Y48	Z48	X49	Y49	Z49	X50	Y50	Z50	X51	Y51	Z51	X52	Y52	Z52	X53	Y53	Z53	X54	Y54	Z54	X55	Y55	Z55	X56	Y56	Z56	X57	Y57	Z57	X58	Y58	Z58	X59	Y59	Z59	X60	Y60	Z60	X61	Y61	Z61	X62	Y62	Z62	X63	Y63	Z63	

1	0	-195.7346954345704	1765.697998046875	-1216.04443359375	-322.6558227539063	1722.810180664063	-1256.423950195313	-378.8827209472657	1692.839721679688	-1123.952880859375	-394.0407714843751	1565.410522460938	-1164.821166992188	-428.9685363769532	1247.948608398438	-1132.999389648438	-267.6134948730469	1491.922485351563	-1165.702270507813	-325.9732360839844	1538.64892578125	-1318.786987304688	-205.5019836425782	1406.115478515625	-1408.60986328125	-164.1267547607422	1413.440307617188	-1381.999267578125	-149.2505950927735	1367.086181640625	-1418.840209960938	-106.1094589233399	1318.682006835938	-1422.962280273438	-130.4530181884766	1273.643432617188	-1377.853637695313	147.1940002441407	1280.458129882813	-1282.819213867188	163.5249938964844	1263.4853515625	-1355.880737304688	235.1033630371094	1274.686401367188	-1267.254638671875	-298.9721069335938	1533.100952148438	-1014.729736328125	-181.6581573486328	1392.809936523438	-933.7983398437502	-142.3245239257813	1403.087524414063	-959.6282958984377	-125.4369277954102	1351.273315429688	-933.590759277344	-73.19081878662111	1318.376098632813	-940.670593261719	-104.2787094116211	1268.762573242188	-990.828552246094	180.3795013427735	1255.719116210938	-1074.3623046875	185.0753479003907	1229.482177734375	-1001.447021484375	271.8045959472657	1241.084838867188	-1075.32470703125	-246.7392120361329	1077.802856445313	-1243.584228515625	-238.0085906982422	1079.368041992188	-1013.706787109375	-430.272186279297	1106.24853515625	-1116.59765625	-436.3518676757814	1076.81689453125	-1143.51611328125	-434.1555786132814	1075.892333984375	-1087.355224609375	-346.1203308105469	812.9077148437502	-1282.407592773438	-300.2477111816407	740.9474487304689	-1284.807861328125	-255.587631225586	749.7070312500001	-1291.969848632813	-316.8059692382813	686.8700561523439	-1268.498901367188	-286.9446716308594	555.2960815429689	-1253.087646484375	-281.5237426757813	544.9327392578126	-1121.402954101563	-265.3983154296876	331.8499755859376	-1194.360473632813	-339.0244750976563	296.7034301757813	-1227.896118164063	-297.0812683105469	285.6236877441407	-1216.157592773438	-294.6104431152344	210.4254760742188	-1173.125122070313	-368.6763610839844	129.2810668945313	-1175.536499023438	-334.1883850097657	146.1870880126953	-1097.045776367188	-430.1445617675782	103.4049911499024	-1123.619140625	-218.2704772949219	56.90943527221681	-1105.325317382813	-219.2621002197266	52.51715469360353	-1151.344116210938	-271.1856384277344	38.22185897827149	-1199.2783203125	-227.0715484619141	810.3909912109377	-943.0830688476565	-181.5447082519532	762.3488769531251	-948.082702636719	-150.7497711181641	771.2626953125002	-956.1696777343752	-194.3315887451172	680.1211547851564	-952.1838989257815	-180.2702789306641	566.5275878906251	-962.068054199219	-192.3845672607422	555.7133178710939	-1089.715087890625	-269.0376892089844	401.2044982910157	-978.081970214844	-373.6706542968751	405.6095275878907	-947.8753662109377	-346.3598937988282	369.7896423339844	-959.455261230469	-372.2753295898438	325.0418090820313	-990.9737548828127	-489.9619750976564	282.5010375976563	-961.6662597656252	-470.0598754882814	283.3594970703126	-1048.727783203125	-573.3168334960939	277.0708312988282	-1015.119689941406	-386.6062011718751	160.2128295898438	-1028.113647460938	-389.0886535644532	162.2488555908203	-988.1242675781252	-437.2227478027345	160.98974609375	-936.3460083007815	nan	nan	nan	nan	nan	nan	
2	0.005	-195.6394500732422	1765.670532226563	-1216.34716796875	-322.6065368652344	1722.712890625	-1256.5859375	-378.7527465820313	1692.658569335938	-1124.047485351563	-393.8890686035157	1565.329711914063	-1164.951782226563	-428.788055419922	1247.84814453125	-1133.116821289063	-267.4682617187501	1491.747802734375	-1166.008666992188	-325.9556274414063	1538.642211914063	-1318.93798828125	-205.9225769042969	1406.5556640625	-1408.338256835938	-163.9073638916016	1413.966552734375	-1381.991455078125	-148.8442840576172	1367.81396484375	-1418.978759765625	-105.5144882202149	1319.605102539063	-1423.054443359375	-129.820068359375	1274.4736328125	-1378.0283203125	147.3112945556641	1281.807495117188	-1282.6640625	164.3433380126953	1265.0869140625	-1355.73095703125	235.5669708251954	1276.29638671875	-1267.01318359375	-298.7598571777344	1533.089233398438	-1015.057861328125	-180.9734802246094	1393.25732421875	-934.2485351562502	-141.5311737060547	1403.775512695313	-960.3405761718752	-124.0235290527344	1352.019897460938	-934.400573730469	-72.2893753051758	1319.425903320313	-941.5816040039065	-102.6511611938477	1269.673461914063	-991.8804321289065	181.580810546875	1257.61767578125	-1075.36767578125	186.485107421875	1231.71875	-1002.583862304688	272.8796386718751	1243.887573242188	-1077.689575195313	-246.628890991211	1077.75927734375	-1243.818725585938	-238.0197753906251	1078.998779296875	-1013.862609863281	-430.164764404297	1106.137573242188	-1116.81884765625	-436.1763610839845	1076.70654296875	-1143.781616210938	-433.992889404297	1075.703125	-1087.645141601563	-346.0106811523438	812.7971191406252	-1282.748291015625	-300.3173522949219	741.0499877929689	-1285.065307617188	-255.4609527587891	749.6937866210939	-1292.439453125	-316.5874023437501	686.8218383789064	-1268.784057617188	-286.7427062988282	555.1789550781251	-1253.516967773438	-281.3981933593751	544.8745727539064	-1121.72607421875	-265.2758789062501	331.0487670898438	-1194.874877929688	-338.8565979003907	296.6622009277344	-1228.088134765625	-297.2951660156251	285.6001586914063	-1216.499145507813	-294.5412902832032	210.3773956298829	-1173.285278320313	-368.6638793945313	129.2843627929688	-1175.669311523438	-334.1577758789063	145.3311309814453	-1097.053955078125	-430.0921020507814	103.4104385375977	-1123.697875976563	-218.2704772949219	56.90943527221681	-1105.325317382813	-219.2793884277344	52.45431137084962	-1151.341918945313	-270.9056091308594	38.54290390014649	-1199.9619140625	-227.7390136718751	810.0595703125002	-943.2348632812502	-181.9166107177735	761.7896728515626	-948.3892822265627	-151.2032775878907	770.8872680664065	-956.417175292969	-194.8064727783204	679.7247924804689	-952.6127929687502	-181.5542907714844	565.9592895507814	-962.8079223632815	-193.0431823730469	556.1435546875001	-1089.90087890625	-270.5859069824219	401.5059509277345	-978.456237792969	-375.4242858886719	406.6343078613282	-948.5197753906252	-347.5972290039063	370.3341369628907	-960.323425292969	-374.2733764648438	325.9377746582032	-991.792175292969	-493.1470336914064	284.0823974609376	-963.0608520507815	-472.4106750488282	285.1607666015626	-1049.614379882813	-575.6860961914064	279.5052185058594	-1016.079772949219	-389.9522399902345	161.5735473632813	-1028.947021484375	-392.5507202148439	162.1556396484375	-988.9018554687502	-440.4171752929689	162.3989562988282	-937.2094726562502	nan	nan	nan	nan	nan	nan	
3	0.01	-195.5671691894532	1765.697509765625	-1216.6396484375	-322.5556640625001	1722.649536132813	-1256.738403320313	-378.5772705078126	1692.517456054688	-1124.177856445313	-393.6964721679689	1565.222778320313	-1165.064208984375	-428.6085205078126	1247.737915039063	-1133.268920898438	-267.2717590332032	1491.677368164063	-1166.278564453125	-325.9849548339844	1538.6181640625	-1319.086059570313	-204.932601928711	1407.205932617188	-1408.924926757813	-163.6492462158203	1414.706665039063	-1382.165161132813	-148.4975891113282	1368.490966796875	-1419.0576171875	-105.0075759887696	1320.3310546875	-1423.239013671875	-129.180648803711	1275.094116210938	-1378.22412109375	148.0426177978516	1283.213256835938	-1282.690795898438	164.4131622314453	1267.176635742188	-1355.855834960938	236.2662811279297	1277.886962890625	-1266.843139648438	-298.4169006347657	1533.044799804688	-1015.397216796875	-180.06640625	1393.731201171875	-934.8244628906252	-140.8079223632813	1404.395751953125	-960.9523925781252	-123.4087982177735	1352.81884765625	-934.9092407226565	-70.63758087158205	1319.773803710938	-942.2939453125002	-101.2090072631836	1270.767944335938	-992.7544555664065	182.9201812744141	1259.6025390625	-1076.599243164063	187.8509521484375	1233.440063476563	-1003.6142578125	274.5954589843751	1245.792236328125	-1078.973266601563	-246.4781799316407	1077.719482421875	-1244.062866210938	-237.9986572265626	1079.161376953125	-1013.875549316406	-430.0580139160157	1106.050048828125	-1117.044799804688	-435.9952697753907	1076.597412109375	-1144.011840820313	-433.9650268554689	1075.604248046875	-1087.93701171875	-345.9685668945313	812.7752685546877	-1283.06396484375	-300.3554077148438	741.1718139648439	-1285.4287109375	-255.6315460205079	749.7377929687501	-1292.229736328125	-316.4841003417969	686.7406005859376	-1269.109252929688	-286.4880981445313	555.1348266601564	-1253.892211914063	-281.2004394531251	544.8559570312501	-1122.056518554688	-264.3339233398438	332.0882873535157	-1194.776245117188	-338.7133789062501	296.6801757812501	-1228.312255859375	-296.0243530273438	285.5748291015626	-1216.464965820313	-294.5181579589844	210.2843780517579	-1173.42529296875	-368.6115722656251	129.2632293701172	-1175.8017578125	-334.1708068847657	145.4867401123047	-1097.234375	-430.0640563964845	103.4338912963867	-1123.7822265625	-218.2808532714844	56.90669250488283	-1105.3466796875	-219.2763366699219	52.40198135375978	-1151.342041015625	-270.8872985839844	38.4964942932129	-1199.981323242188	-227.0963592529297	810.3841552734377	-942.8985595703127	-182.3176727294922	761.2253417968751	-948.9436035156252	-151.6423950195313	770.4126586914065	-956.569519042969	-195.2126922607422	679.3720703125001	-952.8710937500002	-181.6546020507813	566.1569213867189	-962.7222290039065	-193.8525390625001	556.0217895507814	-1090.31494140625	-272.5457458496094	401.9430236816407	-979.0017700195315	-377.1968994140626	407.6421508789064	-949.2873535156252	-349.7319335937501	371.1769714355469	-960.8433227539065	-376.6838684082032	326.6660766601563	-992.377380371094	-495.1243591308595	286.3013610839844	-963.3474731445315	-474.8130187988282	286.9164733886719	-1050.423706054688	-577.9929199218751	281.8429870605469	-1017.087463378906	-393.2628173828126	162.8742828369141	-1029.779052734375	-395.3363342285157	163.9353179931641	-989.0184326171877	-443.569061279297	164.0447540283203	-938.2919921875002	nan	nan	nan	nan	nan	nan	
4	0.015	-195.4124755859376	1765.692749023438	-1216.916625976563	-322.5096435546876	1722.558715820313	-1256.895385742188	-378.1624755859376	1692.262329101563	-1124.350830078125	-393.5675354003907	1565.154663085938	-1165.244750976563	-428.4874572753907	1247.649047851563	-1133.4296875	-267.2111206054688	1491.58642578125	-1166.566040039063	-325.9544982910157	1538.6064453125	-1319.241577148438	-203.7802276611329	1408.167602539063	-1409.638916015625	-162.9651489257813	1415.397338867188	-1382.728149414063	-148.0499877929688	1369.237548828125	-1419.235961914063	-104.4240951538086	1321.252807617188	-1423.391357421875	-128.4947662353516	1275.960327148438	-1378.466918945313	148.6634216308594	1284.2861328125	-1282.77783203125	165.1920776367188	1268.642822265625	-1355.90576171875	236.7085418701172	1279.471923828125	-1266.68359375	-298.0916748046876	1533.009765625	-1015.808166503906	-179.1017608642578	1394.21044921875	-935.4349365234377	-139.9880828857422	1405.271362304688	-961.4617309570315	-121.9743957519532	1353.578002929688	-935.8093872070315	-69.77159118652345	1321.434326171875	-943.0632324218752	-99.21362304687503	1271.106567382813	-993.778015136719	184.081283569336	1261.647583007813	-1077.717529296875	188.3843231201172	1235.48193359375	-1005.453186035156	275.6204223632813	1248.357299804688	-1080.266235351563	-246.4167022705079	1077.656372070313	-1244.293701171875	-237.9641876220704	1079.052368164063	-1013.98291015625	-429.9246826171876	1105.9345703125	-1117.233032226563	-435.9255371093751	1076.49267578125	-1144.249755859375	-433.7976379394532	1075.469970703125	-1088.204956054688	-345.9459228515626	812.7078247070315	-1283.36328125	-300.3227233886719	741.1548461914064	-1285.741943359375	-255.6080169677735	749.7056274414064	-1292.635620117188	-316.3345642089844	686.6856079101564	-1269.470703125	-286.2943725585938	555.0501098632814	-1254.206420898438	-281.0929870605469	544.8600463867189	-1122.34619140625	-263.8752441406251	332.1050415039063	-1195.306030273438	-338.6889953613282	296.6490783691407	-1228.561767578125	-295.9626464843751	285.5375061035157	-1216.832763671875	-294.4804992675782	210.2706146240235	-1173.616333007813	-368.5738830566407	129.2329406738282	-1175.911743164063	-334.1436157226563	145.5401611328125	-1097.380615234375	-430.1010742187501	103.4932861328125	-1123.804077148438	-218.2950286865235	56.94997406005861	-1105.41064453125	-219.244857788086	52.41418457031251	-1151.4150390625	-270.8777465820313	38.41086959838868	-1199.965454101563	-227.502670288086	810.0126953125002	-943.237243652344	-182.4253234863282	761.0358886718751	-948.9869384765627	-152.2729949951172	769.8320922851565	-956.7282714843752	-195.8735351562501	679.0303344726564	-953.106872558594	-182.2878875732422	565.8567504882814	-963.2042236328127	-195.2288513183594	556.1943359375001	-1090.734252929688	-274.2345275878907	402.4472045898439	-979.5357055664065	-378.6319580078126	408.9147949218751	-950.0858154296877	-351.2969665527344	372.0164794921876	-961.3129882812502	-378.8379516601563	327.8827209472657	-992.9714965820315	-498.379608154297	288.0996093750001	-964.6577758789065	-477.3858032226564	288.8748474121094	-1051.37158203125	-580.7636108398439	284.3632507324219	-1017.982238769531	-396.0867309570314	164.2576141357422	-1030.8125	-398.482147216797	165.184814453125	-990.0852661132815	-447.0369262695314	165.5596771240235	-939.1031494140627	nan	nan	nan	nan	nan	nan	
